<svg viewBox="0 0 650 621" xmlns="http://www.w3.org/2000/svg"
     style="font-family:-apple-system,system-ui,sans-serif;background:white;">
  <text x="325" y="22" text-anchor="middle" font-size="13" font-weight="600" fill="#222">
    Wnt Pathway, OPC/OL Lineage, and Vascular Gene Expression Across Brain Regions
  </text>
  <text x="325" y="38" text-anchor="middle" font-size="10" fill="#666">
    Allen Mouse Brain Atlas · ISH expression energy (row-normalized per gene)
  </text>
  <text x="325" y="53" text-anchor="middle" font-size="10" fill="#555">
    Note: corpus callosum excluded — ISH is zero in fiber tracts (no cell bodies)
  </text>
  <rect x="510" y="51" width="70" height="474" fill="#fff8f0" opacity="0.7"/><rect x="160" y="51" width="70" height="474" fill="#f0f8ff" opacity="0.7"/><defs><linearGradient id="cb1" x1="0" y1="1" x2="0" y2="0"><stop offset="0%" stop-color="rgb(235,245,235)"/><stop offset="50%" stop-color="rgb(255,255,255)"/><stop offset="100%" stop-color="rgb(255,70,70)"/></linearGradient></defs><rect x="590" y="105" width="13" height="416" fill="url(#cb1)" stroke="#ccc" stroke-width="0.5"/><text x="596" y="101" text-anchor="middle" font-size="8" fill="#555">high</text><text x="596" y="531" text-anchor="middle" font-size="8" fill="#555">low</text><text x="125" y="93" text-anchor="middle" font-size="10" fill="#444" font-weight="normal">Isocortex</text><text x="195" y="93" text-anchor="middle" font-size="10" fill="#1a5c8a" font-weight="bold">Hippocampus</text><text x="265" y="93" text-anchor="middle" font-size="10" fill="#444" font-weight="normal">Cerebellum</text><text x="335" y="93" text-anchor="middle" font-size="10" fill="#444" font-weight="normal">Striatum</text><text x="405" y="93" text-anchor="middle" font-size="10" fill="#444" font-weight="normal">Hypothalamus</text><text x="475" y="93" text-anchor="middle" font-size="10" fill="#444" font-weight="normal">Olf. bulb</text><text x="545" y="93" text-anchor="middle" font-size="10" fill="#c05000" font-weight="bold">Midbrain</text><text x="545" y="104" text-anchor="middle" font-size="8.5" fill="#c05000" font-style="italic">↑ most myelinated</text><text x="195" y="104" text-anchor="middle" font-size="8.5" fill="#1a5c8a" font-style="italic">↑ OPC-rich</text><rect x="90" y="105" width="70" height="26" fill="rgb(255,169,169)" stroke="white" stroke-width="1.5"/><rect x="160" y="105" width="70" height="26" fill="rgb(255,247,247)" stroke="white" stroke-width="1.5"/><rect x="230" y="105" width="70" height="26" fill="rgb(235,245,235)" stroke="white" stroke-width="1.5"/><rect x="300" y="105" width="70" height="26" fill="rgb(236,245,236)" stroke="white" stroke-width="1.5"/><rect x="370" y="105" width="70" height="26" fill="rgb(248,251,248)" stroke="white" stroke-width="1.5"/><rect x="440" y="105" width="70" height="26" fill="rgb(255,70,70)" stroke="white" stroke-width="1.5"/><text x="475" y="122" text-anchor="middle" font-size="8" fill="white">0.7</text><rect x="510" y="105" width="70" height="26" fill="rgb(255,120,120)" stroke="white" stroke-width="1.5"/><text x="545" y="122" text-anchor="middle" font-size="8" fill="#333">0.6</text><rect x="90" y="131" width="70" height="26" fill="rgb(249,252,249)" stroke="white" stroke-width="1.5"/><text x="125" y="148" text-anchor="middle" font-size="8" fill="#333">9.0</text><rect x="160" y="131" width="70" height="26" fill="rgb(255,70,70)" stroke="white" stroke-width="1.5"/><text x="195" y="148" text-anchor="middle" font-size="8" fill="white">12.8</text><rect x="230" y="131" width="70" height="26" fill="rgb(235,245,235)" stroke="white" stroke-width="1.5"/><text x="265" y="148" text-anchor="middle" font-size="8" fill="#333">6.7</text><rect x="300" y="131" width="70" height="26" fill="rgb(253,254,253)" stroke="white" stroke-width="1.5"/><text x="335" y="148" text-anchor="middle" font-size="8" fill="#333">9.5</text><rect x="370" y="131" width="70" height="26" fill="rgb(248,251,248)" stroke="white" stroke-width="1.5"/><text x="405" y="148" text-anchor="middle" font-size="8" fill="#333">8.8</text><rect x="440" y="131" width="70" height="26" fill="rgb(237,246,237)" stroke="white" stroke-width="1.5"/><text x="475" y="148" text-anchor="middle" font-size="8" fill="#333">7.1</text><rect x="510" y="131" width="70" height="26" fill="rgb(250,252,250)" stroke="white" stroke-width="1.5"/><text x="545" y="148" text-anchor="middle" font-size="8" fill="#333">9.0</text><rect x="90" y="157" width="70" height="26" fill="rgb(255,239,239)" stroke="white" stroke-width="1.5"/><text x="125" y="174" text-anchor="middle" font-size="8" fill="#333">2.2</text><rect x="160" y="157" width="70" height="26" fill="rgb(253,254,253)" stroke="white" stroke-width="1.5"/><text x="195" y="174" text-anchor="middle" font-size="8" fill="#333">1.9</text><rect x="230" y="157" width="70" height="26" fill="rgb(255,70,70)" stroke="white" stroke-width="1.5"/><text x="265" y="174" text-anchor="middle" font-size="8" fill="white">3.6</text><rect x="300" y="157" width="70" height="26" fill="rgb(235,245,235)" stroke="white" stroke-width="1.5"/><rect x="370" y="157" width="70" height="26" fill="rgb(242,248,242)" stroke="white" stroke-width="1.5"/><rect x="440" y="157" width="70" height="26" fill="rgb(255,99,99)" stroke="white" stroke-width="1.5"/><text x="475" y="174" text-anchor="middle" font-size="8" fill="white">3.4</text><rect x="510" y="157" width="70" height="26" fill="rgb(255,206,206)" stroke="white" stroke-width="1.5"/><text x="545" y="174" text-anchor="middle" font-size="8" fill="#333">2.5</text><rect x="90" y="183" width="70" height="26" fill="rgb(235,245,235)" stroke="white" stroke-width="1.5"/><rect x="160" y="183" width="70" height="26" fill="rgb(237,246,237)" stroke="white" stroke-width="1.5"/><text x="195" y="200" text-anchor="middle" font-size="8" fill="#333">1.6</text><rect x="230" y="183" width="70" height="26" fill="rgb(239,247,239)" stroke="white" stroke-width="1.5"/><text x="265" y="200" text-anchor="middle" font-size="8" fill="#333">2.0</text><rect x="300" y="183" width="70" height="26" fill="rgb(236,245,236)" stroke="white" stroke-width="1.5"/><rect x="370" y="183" width="70" height="26" fill="rgb(241,248,241)" stroke="white" stroke-width="1.5"/><text x="405" y="200" text-anchor="middle" font-size="8" fill="#333">2.3</text><rect x="440" y="183" width="70" height="26" fill="rgb(235,245,235)" stroke="white" stroke-width="1.5"/><rect x="510" y="183" width="70" height="26" fill="rgb(255,70,70)" stroke="white" stroke-width="1.5"/><text x="545" y="200" text-anchor="middle" font-size="8" fill="white">8.4</text><rect x="90" y="209" width="70" height="26" fill="rgb(255,123,123)" stroke="white" stroke-width="1.5"/><text x="125" y="226" text-anchor="middle" font-size="8" fill="#333">0.1</text><rect x="160" y="209" width="70" height="26" fill="rgb(255,70,70)" stroke="white" stroke-width="1.5"/><text x="195" y="226" text-anchor="middle" font-size="8" fill="white">0.1</text><rect x="230" y="209" width="70" height="26" fill="rgb(249,252,249)" stroke="white" stroke-width="1.5"/><rect x="300" y="209" width="70" height="26" fill="rgb(235,245,235)" stroke="white" stroke-width="1.5"/><rect x="370" y="209" width="70" height="26" fill="rgb(255,125,125)" stroke="white" stroke-width="1.5"/><text x="405" y="226" text-anchor="middle" font-size="8" fill="#333">0.1</text><rect x="440" y="209" width="70" height="26" fill="rgb(255,76,76)" stroke="white" stroke-width="1.5"/><text x="475" y="226" text-anchor="middle" font-size="8" fill="white">0.1</text><rect x="510" y="209" width="70" height="26" fill="rgb(239,247,239)" stroke="white" stroke-width="1.5"/><rect x="90" y="235" width="70" height="26" fill="rgb(255,176,176)" stroke="white" stroke-width="1.5"/><text x="125" y="252" text-anchor="middle" font-size="8" fill="#333">2.2</text><rect x="160" y="235" width="70" height="26" fill="rgb(255,70,70)" stroke="white" stroke-width="1.5"/><text x="195" y="252" text-anchor="middle" font-size="8" fill="white">2.6</text><rect x="230" y="235" width="70" height="26" fill="rgb(235,245,235)" stroke="white" stroke-width="1.5"/><rect x="300" y="235" width="70" height="26" fill="rgb(255,246,246)" stroke="white" stroke-width="1.5"/><text x="335" y="252" text-anchor="middle" font-size="8" fill="#333">1.9</text><rect x="370" y="235" width="70" height="26" fill="rgb(255,132,132)" stroke="white" stroke-width="1.5"/><text x="405" y="252" text-anchor="middle" font-size="8" fill="#333">2.3</text><rect x="440" y="235" width="70" height="26" fill="rgb(255,124,124)" stroke="white" stroke-width="1.5"/><text x="475" y="252" text-anchor="middle" font-size="8" fill="#333">2.4</text><rect x="510" y="235" width="70" height="26" fill="rgb(255,174,174)" stroke="white" stroke-width="1.5"/><text x="545" y="252" text-anchor="middle" font-size="8" fill="#333">2.2</text><rect x="90" y="261" width="70" height="26" fill="rgb(255,70,70)" stroke="white" stroke-width="1.5"/><text x="125" y="278" text-anchor="middle" font-size="8" fill="white">0.7</text><rect x="160" y="261" width="70" height="26" fill="rgb(254,254,254)" stroke="white" stroke-width="1.5"/><rect x="230" y="261" width="70" height="26" fill="rgb(235,245,235)" stroke="white" stroke-width="1.5"/><rect x="300" y="261" width="70" height="26" fill="rgb(244,249,244)" stroke="white" stroke-width="1.5"/><rect x="370" y="261" width="70" height="26" fill="rgb(240,247,240)" stroke="white" stroke-width="1.5"/><rect x="440" y="261" width="70" height="26" fill="rgb(255,240,240)" stroke="white" stroke-width="1.5"/><rect x="510" y="261" width="70" height="26" fill="rgb(242,248,242)" stroke="white" stroke-width="1.5"/><rect x="90" y="287" width="70" height="26" fill="rgb(255,237,237)" stroke="white" stroke-width="1.5"/><text x="125" y="304" text-anchor="middle" font-size="8" fill="#333">3.5</text><rect x="160" y="287" width="70" height="26" fill="rgb(245,250,245)" stroke="white" stroke-width="1.5"/><text x="195" y="304" text-anchor="middle" font-size="8" fill="#333">2.9</text><rect x="230" y="287" width="70" height="26" fill="rgb(235,245,235)" stroke="white" stroke-width="1.5"/><text x="265" y="304" text-anchor="middle" font-size="8" fill="#333">2.4</text><rect x="300" y="287" width="70" height="26" fill="rgb(255,70,70)" stroke="white" stroke-width="1.5"/><text x="335" y="304" text-anchor="middle" font-size="8" fill="white">4.4</text><rect x="370" y="287" width="70" height="26" fill="rgb(255,247,247)" stroke="white" stroke-width="1.5"/><text x="405" y="304" text-anchor="middle" font-size="8" fill="#333">3.5</text><rect x="440" y="287" width="70" height="26" fill="rgb(255,139,139)" stroke="white" stroke-width="1.5"/><text x="475" y="304" text-anchor="middle" font-size="8" fill="#333">4.1</text><rect x="510" y="287" width="70" height="26" fill="rgb(255,116,116)" stroke="white" stroke-width="1.5"/><text x="545" y="304" text-anchor="middle" font-size="8" fill="#333">4.2</text><rect x="90" y="313" width="70" height="26" fill="rgb(242,248,242)" stroke="white" stroke-width="1.5"/><text x="125" y="330" text-anchor="middle" font-size="8" fill="#333">7.6</text><rect x="160" y="313" width="70" height="26" fill="rgb(235,245,235)" stroke="white" stroke-width="1.5"/><text x="195" y="330" text-anchor="middle" font-size="8" fill="#333">6.7</text><rect x="230" y="313" width="70" height="26" fill="rgb(255,167,167)" stroke="white" stroke-width="1.5"/><text x="265" y="330" text-anchor="middle" font-size="8" fill="#333">10.6</text><rect x="300" y="313" width="70" height="26" fill="rgb(255,168,168)" stroke="white" stroke-width="1.5"/><text x="335" y="330" text-anchor="middle" font-size="8" fill="#333">10.5</text><rect x="370" y="313" width="70" height="26" fill="rgb(255,166,166)" stroke="white" stroke-width="1.5"/><text x="405" y="330" text-anchor="middle" font-size="8" fill="#333">10.6</text><rect x="440" y="313" width="70" height="26" fill="rgb(248,251,248)" stroke="white" stroke-width="1.5"/><text x="475" y="330" text-anchor="middle" font-size="8" fill="#333">8.4</text><rect x="510" y="313" width="70" height="26" fill="rgb(255,70,70)" stroke="white" stroke-width="1.5"/><text x="545" y="330" text-anchor="middle" font-size="8" fill="white">11.9</text><rect x="90" y="339" width="70" height="26" fill="rgb(244,249,244)" stroke="white" stroke-width="1.5"/><text x="125" y="356" text-anchor="middle" font-size="8" fill="#333">15.9</text><rect x="160" y="339" width="70" height="26" fill="rgb(236,245,236)" stroke="white" stroke-width="1.5"/><text x="195" y="356" text-anchor="middle" font-size="8" fill="#333">14.3</text><rect x="230" y="339" width="70" height="26" fill="rgb(235,245,235)" stroke="white" stroke-width="1.5"/><text x="265" y="356" text-anchor="middle" font-size="8" fill="#333">14.0</text><rect x="300" y="339" width="70" height="26" fill="rgb(255,221,221)" stroke="white" stroke-width="1.5"/><text x="335" y="356" text-anchor="middle" font-size="8" fill="#333">18.6</text><rect x="370" y="339" width="70" height="26" fill="rgb(255,209,209)" stroke="white" stroke-width="1.5"/><text x="405" y="356" text-anchor="middle" font-size="8" fill="#333">18.8</text><rect x="440" y="339" width="70" height="26" fill="rgb(255,171,171)" stroke="white" stroke-width="1.5"/><text x="475" y="356" text-anchor="middle" font-size="8" fill="#333">19.6</text><rect x="510" y="339" width="70" height="26" fill="rgb(255,70,70)" stroke="white" stroke-width="1.5"/><text x="545" y="356" text-anchor="middle" font-size="8" fill="white">21.7</text><rect x="90" y="365" width="70" height="26" fill="rgb(236,245,236)" stroke="white" stroke-width="1.5"/><text x="125" y="382" text-anchor="middle" font-size="8" fill="#333">3.5</text><rect x="160" y="365" width="70" height="26" fill="rgb(242,248,242)" stroke="white" stroke-width="1.5"/><text x="195" y="382" text-anchor="middle" font-size="8" fill="#333">4.4</text><rect x="230" y="365" width="70" height="26" fill="rgb(247,251,247)" stroke="white" stroke-width="1.5"/><text x="265" y="382" text-anchor="middle" font-size="8" fill="#333">5.2</text><rect x="300" y="365" width="70" height="26" fill="rgb(255,252,252)" stroke="white" stroke-width="1.5"/><text x="335" y="382" text-anchor="middle" font-size="8" fill="#333">6.5</text><rect x="370" y="365" width="70" height="26" fill="rgb(244,249,244)" stroke="white" stroke-width="1.5"/><text x="405" y="382" text-anchor="middle" font-size="8" fill="#333">4.8</text><rect x="440" y="365" width="70" height="26" fill="rgb(235,245,235)" stroke="white" stroke-width="1.5"/><text x="475" y="382" text-anchor="middle" font-size="8" fill="#333">3.3</text><rect x="510" y="365" width="70" height="26" fill="rgb(255,70,70)" stroke="white" stroke-width="1.5"/><text x="545" y="382" text-anchor="middle" font-size="8" fill="white">9.7</text><rect x="90" y="391" width="70" height="26" fill="rgb(237,246,237)" stroke="white" stroke-width="1.5"/><text x="125" y="408" text-anchor="middle" font-size="8" fill="#333">5.0</text><rect x="160" y="391" width="70" height="26" fill="rgb(238,246,238)" stroke="white" stroke-width="1.5"/><text x="195" y="408" text-anchor="middle" font-size="8" fill="#333">5.0</text><rect x="230" y="391" width="70" height="26" fill="rgb(251,253,251)" stroke="white" stroke-width="1.5"/><text x="265" y="408" text-anchor="middle" font-size="8" fill="#333">7.0</text><rect x="300" y="391" width="70" height="26" fill="rgb(255,225,225)" stroke="white" stroke-width="1.5"/><text x="335" y="408" text-anchor="middle" font-size="8" fill="#333">8.0</text><rect x="370" y="391" width="70" height="26" fill="rgb(255,235,235)" stroke="white" stroke-width="1.5"/><text x="405" y="408" text-anchor="middle" font-size="8" fill="#333">7.8</text><rect x="440" y="391" width="70" height="26" fill="rgb(235,245,235)" stroke="white" stroke-width="1.5"/><text x="475" y="408" text-anchor="middle" font-size="8" fill="#333">4.5</text><rect x="510" y="391" width="70" height="26" fill="rgb(255,70,70)" stroke="white" stroke-width="1.5"/><text x="545" y="408" text-anchor="middle" font-size="8" fill="white">10.5</text><rect x="90" y="417" width="70" height="26" fill="rgb(255,70,70)" stroke="white" stroke-width="1.5"/><text x="125" y="434" text-anchor="middle" font-size="8" fill="white">1.1</text><rect x="160" y="417" width="70" height="26" fill="rgb(255,123,123)" stroke="white" stroke-width="1.5"/><text x="195" y="434" text-anchor="middle" font-size="8" fill="#333">1.0</text><rect x="230" y="417" width="70" height="26" fill="rgb(252,253,252)" stroke="white" stroke-width="1.5"/><rect x="300" y="417" width="70" height="26" fill="rgb(249,252,249)" stroke="white" stroke-width="1.5"/><rect x="370" y="417" width="70" height="26" fill="rgb(235,245,235)" stroke="white" stroke-width="1.5"/><rect x="440" y="417" width="70" height="26" fill="rgb(255,193,193)" stroke="white" stroke-width="1.5"/><rect x="510" y="417" width="70" height="26" fill="rgb(238,246,238)" stroke="white" stroke-width="1.5"/><rect x="90" y="443" width="70" height="26" fill="rgb(245,250,245)" stroke="white" stroke-width="1.5"/><rect x="160" y="443" width="70" height="26" fill="rgb(245,250,245)" stroke="white" stroke-width="1.5"/><rect x="230" y="443" width="70" height="26" fill="rgb(255,164,164)" stroke="white" stroke-width="1.5"/><rect x="300" y="443" width="70" height="26" fill="rgb(235,245,235)" stroke="white" stroke-width="1.5"/><rect x="370" y="443" width="70" height="26" fill="rgb(240,247,240)" stroke="white" stroke-width="1.5"/><rect x="440" y="443" width="70" height="26" fill="rgb(255,70,70)" stroke="white" stroke-width="1.5"/><text x="475" y="460" text-anchor="middle" font-size="8" fill="white">1.4</text><rect x="510" y="443" width="70" height="26" fill="rgb(255,253,253)" stroke="white" stroke-width="1.5"/><rect x="90" y="469" width="70" height="26" fill="rgb(239,247,239)" stroke="white" stroke-width="1.5"/><text x="125" y="486" text-anchor="middle" font-size="8" fill="#333">2.9</text><rect x="160" y="469" width="70" height="26" fill="rgb(240,247,240)" stroke="white" stroke-width="1.5"/><text x="195" y="486" text-anchor="middle" font-size="8" fill="#333">3.0</text><rect x="230" y="469" width="70" height="26" fill="rgb(242,248,242)" stroke="white" stroke-width="1.5"/><text x="265" y="486" text-anchor="middle" font-size="8" fill="#333">3.2</text><rect x="300" y="469" width="70" height="26" fill="rgb(237,246,237)" stroke="white" stroke-width="1.5"/><text x="335" y="486" text-anchor="middle" font-size="8" fill="#333">2.8</text><rect x="370" y="469" width="70" height="26" fill="rgb(236,245,236)" stroke="white" stroke-width="1.5"/><text x="405" y="486" text-anchor="middle" font-size="8" fill="#333">2.6</text><rect x="440" y="469" width="70" height="26" fill="rgb(255,70,70)" stroke="white" stroke-width="1.5"/><text x="475" y="486" text-anchor="middle" font-size="8" fill="white">7.0</text><rect x="510" y="469" width="70" height="26" fill="rgb(235,245,235)" stroke="white" stroke-width="1.5"/><text x="545" y="486" text-anchor="middle" font-size="8" fill="#333">2.4</text><rect x="90" y="495" width="70" height="26" fill="rgb(236,245,236)" stroke="white" stroke-width="1.5"/><rect x="160" y="495" width="70" height="26" fill="rgb(250,252,250)" stroke="white" stroke-width="1.5"/><text x="195" y="512" text-anchor="middle" font-size="8" fill="#333">1.6</text><rect x="230" y="495" width="70" height="26" fill="rgb(255,70,70)" stroke="white" stroke-width="1.5"/><text x="265" y="512" text-anchor="middle" font-size="8" fill="white">1.9</text><rect x="300" y="495" width="70" height="26" fill="rgb(237,246,237)" stroke="white" stroke-width="1.5"/><rect x="370" y="495" width="70" height="26" fill="rgb(235,245,235)" stroke="white" stroke-width="1.5"/><rect x="440" y="495" width="70" height="26" fill="rgb(255,96,96)" stroke="white" stroke-width="1.5"/><text x="475" y="512" text-anchor="middle" font-size="8" fill="white">1.9</text><rect x="510" y="495" width="70" height="26" fill="rgb(248,251,248)" stroke="white" stroke-width="1.5"/><text x="545" y="512" text-anchor="middle" font-size="8" fill="#333">1.6</text><line x1="90" y1="235" x2="580" y2="235" stroke="#bbb" stroke-width="1.5"/><line x1="90" y1="287" x2="580" y2="287" stroke="#bbb" stroke-width="1.5"/><line x1="90" y1="417" x2="580" y2="417" stroke="#bbb" stroke-width="1.5"/><line x1="90" y1="521" x2="580" y2="521" stroke="#bbb" stroke-width="1.5"/><text x="85" y="122" text-anchor="end" font-size="10.5" fill="#e67e22" font-weight="600" font-family="ui-monospace,Menlo,monospace">Axin2</text><text x="85" y="148" text-anchor="end" font-size="10.5" fill="#e67e22" font-weight="600" font-family="ui-monospace,Menlo,monospace">Ctnnb1</text><text x="85" y="174" text-anchor="end" font-size="10.5" fill="#e67e22" font-weight="600" font-family="ui-monospace,Menlo,monospace">Fzd1</text><text x="85" y="200" text-anchor="end" font-size="10.5" fill="#e67e22" font-weight="600" font-family="ui-monospace,Menlo,monospace">Tcf7l2</text><text x="85" y="226" text-anchor="end" font-size="10.5" fill="#e67e22" font-weight="600" font-family="ui-monospace,Menlo,monospace">Wnt3a</text><text x="85" y="252" text-anchor="end" font-size="10.5" fill="#2980b9" font-weight="600" font-family="ui-monospace,Menlo,monospace">Pdgfra</text><text x="85" y="278" text-anchor="end" font-size="10.5" fill="#2980b9" font-weight="600" font-family="ui-monospace,Menlo,monospace">Cspg4</text><text x="85" y="304" text-anchor="end" font-size="10.5" fill="#27ae60" font-weight="600" font-family="ui-monospace,Menlo,monospace">Sox10</text><text x="85" y="330" text-anchor="end" font-size="10.5" fill="#27ae60" font-weight="600" font-family="ui-monospace,Menlo,monospace">Mbp</text><text x="85" y="356" text-anchor="end" font-size="10.5" fill="#27ae60" font-weight="600" font-family="ui-monospace,Menlo,monospace">Plp1</text><text x="85" y="382" text-anchor="end" font-size="10.5" fill="#27ae60" font-weight="600" font-family="ui-monospace,Menlo,monospace">Mog</text><text x="85" y="408" text-anchor="end" font-size="10.5" fill="#27ae60" font-weight="600" font-family="ui-monospace,Menlo,monospace">Cnp</text><text x="85" y="434" text-anchor="end" font-size="10.5" fill="#8e44ad" font-weight="600" font-family="ui-monospace,Menlo,monospace">Pecam1</text><text x="85" y="460" text-anchor="end" font-size="10.5" fill="#8e44ad" font-weight="600" font-family="ui-monospace,Menlo,monospace">Cdh5</text><text x="85" y="486" text-anchor="end" font-size="10.5" fill="#8e44ad" font-weight="600" font-family="ui-monospace,Menlo,monospace">Cldn5</text><text x="85" y="512" text-anchor="end" font-size="10.5" fill="#8e44ad" font-weight="600" font-family="ui-monospace,Menlo,monospace">Pdgfrb</text>
</svg>