<svg viewBox="0 0 580 460" xmlns="http://www.w3.org/2000/svg"
     style="font-family:-apple-system,system-ui,sans-serif;background:white;">
  <text x="290" y="22" text-anchor="middle" font-size="13" font-weight="600" fill="#222">
    OPC Marker vs Vascular Marker Co-Distribution
  </text>
  <text x="290" y="38" text-anchor="middle" font-size="10" fill="#666">
    Each dot = one brain region · dot size = myelin gene expression level
  </text>
  <text x="290" y="53" text-anchor="middle" font-size="10" fill="#555">
    OPC index = mean(Pdgfra, Cspg4) · Vascular index = mean(Pecam1, Cdh5, Cldn5)
  </text>
  <line x1="65" y1="85" x2="65" y2="390" stroke="#aaa" stroke-width="1.5"/>
  <line x1="65" y1="390" x2="540" y2="390" stroke="#aaa" stroke-width="1.5"/>
  <line x1="61" y1="390.0" x2="540" y2="390.0" stroke="#f0f0f0" stroke-width="1"/><text x="58" y="393.0" text-anchor="end" font-size="9" fill="#666">0.0</text><line x1="61" y1="304.4" x2="540" y2="304.4" stroke="#f0f0f0" stroke-width="1"/><text x="58" y="307.4" text-anchor="end" font-size="9" fill="#666">0.5</text><line x1="61" y1="218.9" x2="540" y2="218.9" stroke="#f0f0f0" stroke-width="1"/><text x="58" y="221.9" text-anchor="end" font-size="9" fill="#666">1.0</text><line x1="61" y1="133.3" x2="540" y2="133.3" stroke="#f0f0f0" stroke-width="1"/><text x="58" y="136.3" text-anchor="end" font-size="9" fill="#666">1.5</text><line x1="65.0" y1="85" x2="65.0" y2="390" stroke="#f0f0f0" stroke-width="1"/><text x="65.0" y="404" text-anchor="middle" font-size="9" fill="#666">0.0</text><line x1="132.6" y1="85" x2="132.6" y2="390" stroke="#f0f0f0" stroke-width="1"/><text x="132.6" y="404" text-anchor="middle" font-size="9" fill="#666">0.5</text><line x1="200.2" y1="85" x2="200.2" y2="390" stroke="#f0f0f0" stroke-width="1"/><text x="200.2" y="404" text-anchor="middle" font-size="9" fill="#666">1.0</text><line x1="267.8" y1="85" x2="267.8" y2="390" stroke="#f0f0f0" stroke-width="1"/><text x="267.8" y="404" text-anchor="middle" font-size="9" fill="#666">1.5</text><line x1="335.4" y1="85" x2="335.4" y2="390" stroke="#f0f0f0" stroke-width="1"/><text x="335.4" y="404" text-anchor="middle" font-size="9" fill="#666">2.0</text><line x1="403.0" y1="85" x2="403.0" y2="390" stroke="#f0f0f0" stroke-width="1"/><text x="403.0" y="404" text-anchor="middle" font-size="9" fill="#666">2.5</text><line x1="470.6" y1="85" x2="470.6" y2="390" stroke="#f0f0f0" stroke-width="1"/><text x="470.6" y="404" text-anchor="middle" font-size="9" fill="#666">3.0</text><circle cx="287.3" cy="141.2" r="14.5" fill="#2980b9" opacity="0.85"/><text x="305.8" y="145.2" font-size="10" fill="#2980b9" text-anchor="start" font-weight="500">Isocortex</text><circle cx="287.6" cy="124.8" r="14.0" fill="#c0392b" opacity="0.85"/><text x="305.7" y="128.8" font-size="10" fill="#c0392b" text-anchor="start" font-weight="500">Hippocampus</text><circle cx="294.5" cy="258.1" r="15.3" fill="#27ae60" opacity="0.85"/><text x="313.8" y="262.1" font-size="10" fill="#27ae60" text-anchor="start" font-weight="500">Cerebellum</text><circle cx="249.6" cy="188.7" r="16.9" fill="#e67e22" opacity="0.85"/><text x="270.5" y="192.7" font-size="10" fill="#e67e22" text-anchor="start" font-weight="500">Striatum</text><circle cx="232.8" cy="155.9" r="16.5" fill="#8e44ad" opacity="0.85"/><text x="253.3" y="159.9" font-size="10" fill="#8e44ad" text-anchor="start" font-weight="500">Hypothalamus</text><circle cx="478.0" cy="140.1" r="15.7" fill="#16a085" opacity="0.85"/><text x="497.7" y="144.1" font-size="10" fill="#16a085" text-anchor="start" font-weight="500">Olfact bulb</text><circle cx="238.7" cy="167.9" r="19.0" fill="#7f8c8d" opacity="0.85"/><text x="215.7" y="144.9" font-size="10" fill="#7f8c8d" text-anchor="end" font-weight="500">Brainstem</text><circle cx="490" cy="115" r="7" fill="#ccc" opacity="0.7"/><circle cx="520" cy="115" r="19" fill="#ccc" opacity="0.7"/><text x="490" y="135" text-anchor="middle" font-size="8.5" fill="#666">low myelin</text><text x="520" y="143" text-anchor="middle" font-size="8.5" fill="#666">high myelin</text>
  <text x="302" y="448" text-anchor="middle" font-size="10.5" fill="#444">
    Vascular index (mean Pecam1 + Cdh5 + Cldn5 expression energy)
  </text>
  <text transform="rotate(-90)" x="-237" y="16" text-anchor="middle" font-size="10.5" fill="#444">
    OPC index (mean Pdgfra + Cspg4)
  </text>
</svg>